<svg width="531" height="531" viewBox="0 0 531 531" fill="none" xmlns="http://www.w3.org/2000/svg">
<path fill-rule="evenodd" clip-rule="evenodd" d="M134.461 105.683L197.638 168.856C216.266 187.491 240.794 196.805 265.3 196.805C289.806 196.805 314.335 187.491 332.966 168.856L396.14 105.686L357.778 67.3253L294.605 130.499C286.572 138.532 275.943 142.55 265.3 142.55C254.657 142.55 244.032 138.535 235.995 130.499L172.822 67.3216L134.461 105.683Z" fill="#4C9CDB"/>
<path fill-rule="evenodd" clip-rule="evenodd" d="M419.589 135.835L356.416 199.008C337.781 217.639 328.467 242.167 328.467 266.669C328.467 291.172 337.781 315.703 356.416 334.335L419.586 397.508L457.947 359.151L394.773 295.974C386.74 287.945 382.722 277.313 382.722 266.669C382.722 256.026 386.737 245.401 394.773 237.368L457.95 174.192L419.589 135.835Z" fill="#F68615"/>
<path fill-rule="evenodd" clip-rule="evenodd" d="M396.137 435.794L332.961 372.617C314.333 353.989 289.809 344.671 265.299 344.668C240.797 344.671 216.269 353.989 197.637 372.617L134.464 435.794L172.825 474.151L235.994 410.978C244.031 402.945 254.656 398.927 265.299 398.927C275.942 398.927 286.567 402.945 294.604 410.978L357.78 474.151L396.137 435.794Z" fill="#48BB39"/>
<path fill-rule="evenodd" clip-rule="evenodd" d="M103.356 397.508L166.53 334.335C185.165 315.703 194.479 291.179 194.479 266.673C194.479 242.167 185.165 217.639 166.53 199.008L103.36 135.835L64.9991 174.192L128.172 237.365C136.205 245.401 140.224 256.03 140.224 266.673C140.224 277.313 136.209 287.941 128.172 295.974L64.9953 359.151L103.356 397.508Z" fill="#DE115B"/>
<path fill-rule="evenodd" clip-rule="evenodd" d="M45.3859 310.687C70.4558 310.687 90.7755 290.367 90.7755 265.301C90.7755 240.235 70.4558 219.915 45.3859 219.915C20.3196 219.915 0 240.235 0 265.301C0 290.367 20.3196 310.687 45.3859 310.687Z" fill="#DE115B"/>
<path fill-rule="evenodd" clip-rule="evenodd" d="M219.914 45.3896C219.914 70.4558 240.234 90.7755 265.3 90.7755C290.37 90.7755 310.689 70.4558 310.689 45.3896C310.689 20.3196 290.37 -8.62609e-06 265.3 -8.62609e-06C240.234 -8.62609e-06 219.914 20.3196 219.914 45.3896Z" fill="#4C9CDB"/>
<path fill-rule="evenodd" clip-rule="evenodd" d="M485.214 219.915C460.148 219.915 439.824 240.235 439.824 265.301C439.824 290.367 460.148 310.687 485.214 310.687C510.28 310.687 530.599 290.367 530.599 265.301C530.599 240.235 510.28 219.915 485.214 219.915Z" fill="#F68615"/>
<path fill-rule="evenodd" clip-rule="evenodd" d="M310.689 485.214C310.689 460.148 290.37 439.824 265.3 439.824C240.234 439.824 219.914 460.148 219.914 485.214C219.914 510.28 240.234 530.6 265.3 530.6C290.37 530.6 310.689 510.28 310.689 485.214Z" fill="#48BB39"/>
</svg>
