<?xml version="1.0" encoding="UTF-8" standalone="no"?>
<!-- Created with Inkscape (http://www.inkscape.org/) -->

<svg
   version="1.1"
   id="svg2"
   width="360.10666"
   height="87.839996"
   viewBox="0 0 360.10666 87.839996"
   sodipodi:docname="Universidad_Tecnologica_Nacional.eps"
   xmlns:inkscape="http://www.inkscape.org/namespaces/inkscape"
   xmlns:sodipodi="http://sodipodi.sourceforge.net/DTD/sodipodi-0.dtd"
   xmlns="http://www.w3.org/2000/svg"
   xmlns:svg="http://www.w3.org/2000/svg">
  <defs
     id="defs6" />
  <sodipodi:namedview
     id="namedview4"
     pagecolor="#ffffff"
     bordercolor="#000000"
     borderopacity="0.25"
     inkscape:showpageshadow="2"
     inkscape:pageopacity="0.0"
     inkscape:pagecheckerboard="0"
     inkscape:deskcolor="#d1d1d1" />
  <g
     id="g8"
     inkscape:groupmode="layer"
     inkscape:label="ink_ext_XXXXXX"
     transform="matrix(1.3333333,0,0,-1.3333333,0,87.84)">
    <g
       id="g10"
       transform="scale(0.1)">
      <path
         d="M 0.503906,3.83984 C 0.503906,134.988 94.0469,244.98 217.777,270.449 v 5.117 H 0.503906 V 384.148 H 217.777 v 4.915 C 93.7461,414.324 0,524.414 0,655.762 h 109.086 c 0,-70.782 45.519,-131.25 108.691,-153.703 V 655.762 H 326.363 V 502.059 c 63.266,22.453 108.789,82.921 108.789,153.703 h 109.086 c 0,-131.348 -93.847,-241.438 -217.875,-266.699 v -4.915 H 543.637 V 275.566 H 326.363 v -4.824 C 450.688,245.574 544.742,135.391 544.742,3.83984 H 435.648 c 0,70.99606 -45.82,131.64816 -109.285,153.90216 V 3.83984 H 217.777 V 157.449 C 154.809,134.785 109.59,74.4258 109.59,3.83984 H 0.503906"
         style="fill:#231f20;fill-opacity:1;fill-rule:evenodd;stroke:none"
         id="path12" />
      <path
         d="M 805.723,655.652 H 860.41 V 549.656 c 0,-10.515 -1.64,-20.437 -4.914,-29.773 -3.269,-9.336 -8.402,-17.512 -15.394,-24.5 -6.993,-6.985 -14.321,-11.899 -21.997,-14.731 -10.667,-3.953 -23.476,-5.945 -38.425,-5.945 -8.649,0 -18.082,0.613 -28.309,1.824 -10.223,1.211 -18.769,3.614 -25.633,7.219 -6.871,3.594 -13.156,8.699 -18.851,15.332 -5.699,6.633 -9.598,13.469 -11.696,20.496 -3.398,11.32 -5.093,21.348 -5.093,30.078 v 105.996 h 54.687 V 547.176 c 0,-9.696 2.695,-17.266 8.086,-22.723 5.391,-5.461 12.871,-8.176 22.442,-8.176 9.488,0 16.929,2.676 22.32,8.047 5.39,5.383 8.09,13 8.09,22.852 v 108.476"
         style="fill:#231f20;fill-opacity:1;fill-rule:nonzero;stroke:none"
         id="path14" />
      <path
         d="m 897.031,655.652 h 51.199 l 66.93,-98.355 v 98.355 h 51.87 v -177.82 h -51.87 l -66.566,97.82 v -97.82 h -51.563 v 177.82"
         style="fill:#231f20;fill-opacity:1;fill-rule:nonzero;stroke:none"
         id="path16" />
      <path
         d="m 1105.84,655.652 h 55 v -177.82 h -55 v 177.82"
         style="fill:#231f20;fill-opacity:1;fill-rule:nonzero;stroke:none"
         id="path18" />
      <path
         d="m 1182.84,655.652 h 57.46 l 40.19,-127.968 39.39,127.968 h 55.76 l -65.94,-177.82 h -59.58 l -67.28,177.82"
         style="fill:#231f20;fill-opacity:1;fill-rule:nonzero;stroke:none"
         id="path20" />
      <path
         d="m 1393.56,655.652 h 147.19 v -38.125 h -92.19 v -28.125 h 85.62 v -36.25 h -85.62 v -35 h 95 v -40.32 h -150 v 177.82"
         style="fill:#231f20;fill-opacity:1;fill-rule:nonzero;stroke:none"
         id="path22" />
      <path
         d="m 1629.21,583.777 h 22.97 c 2.49,0 7.31,0.801 14.45,2.414 3.61,0.723 6.55,2.559 8.83,5.547 2.3,2.969 3.43,6.387 3.43,10.242 0,5.715 -1.81,10.09 -5.41,13.145 -3.61,3.059 -10.39,4.582 -20.33,4.582 h -23.94 z m -55.32,-105.945 v 177.82 h 91.5 c 16.95,0 29.92,-1.453 38.89,-4.363 8.97,-2.922 16.19,-8.312 21.68,-16.191 5.5,-7.883 8.25,-17.481 8.25,-28.789 0,-9.864 -2.11,-18.371 -6.31,-25.52 -4.21,-7.156 -9.99,-12.957 -17.37,-17.391 -4.7,-2.832 -11.12,-5.183 -19.29,-7.031 6.52,-2.195 11.27,-4.375 14.26,-6.57 2.01,-1.457 4.93,-4.582 8.76,-9.359 3.83,-4.774 6.39,-8.465 7.68,-11.063 l 26.65,-51.543 h -62.12 l -29.21,54.356 c -3.69,7.031 -6.98,11.601 -9.87,13.71 -3.94,2.754 -8.39,4.129 -13.37,4.129 h -4.81 v -72.195 h -55.32"
         style="fill:#231f20;fill-opacity:1;fill-rule:nonzero;stroke:none"
         id="path24" />
      <path
         d="m 1756.81,536.453 52.2,3.254 c 1.12,-8.43 3.43,-14.863 6.9,-19.277 5.66,-7.137 13.73,-10.723 24.24,-10.723 7.83,0 13.87,1.844 18.12,5.527 4.23,3.684 6.36,7.95 6.36,12.801 0,4.621 -2.01,8.75 -6.04,12.387 -4.02,3.648 -13.4,7.078 -28.12,10.32 -24.1,5.418 -41.3,12.625 -51.56,21.602 -10.36,8.984 -15.53,20.437 -15.53,34.355 0,9.141 2.64,17.781 7.93,25.918 5.3,8.125 13.27,14.52 23.89,19.168 10.63,4.66 25.2,6.992 43.71,6.992 22.71,0 40.02,-4.226 51.94,-12.656 11.92,-8.445 19.02,-21.863 21.28,-40.262 l -51.87,-3.027 c -1.38,7.969 -4.25,13.758 -8.62,17.383 -4.39,3.621 -10.44,5.437 -18.16,5.437 -6.35,0 -11.13,-1.367 -14.34,-4.07 -3.22,-2.715 -4.83,-6.008 -4.83,-9.894 0,-2.84 1.32,-5.379 3.96,-7.657 2.56,-2.343 8.69,-4.531 18.4,-6.543 24.01,-5.183 41.22,-10.418 51.62,-15.73 10.39,-5.305 17.95,-11.887 22.67,-19.727 4.74,-7.859 7.1,-16.64 7.1,-26.355 0,-11.418 -3.15,-21.946 -9.45,-31.586 -6.31,-9.625 -15.11,-16.934 -26.44,-21.914 -11.31,-4.969 -25.57,-7.469 -42.79,-7.469 -30.22,0 -51.16,5.82 -62.8,17.441 -11.64,11.61 -18.24,26.387 -19.77,44.305"
         style="fill:#231f20;fill-opacity:1;fill-rule:nonzero;stroke:none"
         id="path26" />
      <path
         d="m 1947.78,655.652 h 55 v -177.82 h -55 v 177.82"
         style="fill:#231f20;fill-opacity:1;fill-rule:nonzero;stroke:none"
         id="path28" />
      <path
         d="m 2098.21,615.332 v -97.18 h 13.37 c 11.39,0 19.51,1.262 24.32,3.813 4.82,2.547 8.6,7 11.33,13.355 2.74,6.34 4.1,16.633 4.1,30.879 0,18.84 -3.05,31.75 -9.16,38.703 -6.1,6.953 -16.23,10.43 -30.35,10.43 z m -55,40.32 h 81.53 c 16.07,0 29.05,-2.195 38.96,-6.562 9.88,-4.356 18.06,-10.633 24.53,-18.797 6.46,-8.164 11.14,-17.668 14.05,-28.508 2.9,-10.828 4.37,-22.312 4.37,-34.441 0,-19.004 -2.17,-33.731 -6.49,-44.211 -4.33,-10.465 -10.32,-19.246 -17.99,-26.317 -7.67,-7.07 -15.92,-11.777 -24.72,-14.121 -12.03,-3.242 -22.94,-4.863 -32.71,-4.863 h -81.53 v 177.82"
         style="fill:#231f20;fill-opacity:1;fill-rule:nonzero;stroke:none"
         id="path30" />
      <path
         d="m 2333.09,545.652 -19.32,63.918 -19.39,-63.918 z m 11.62,-38.445 h -62.01 l -8.91,-29.375 h -56.11 l 66.71,177.82 h 60.27 l 66.46,-177.82 h -57.54 l -8.87,29.375"
         style="fill:#231f20;fill-opacity:1;fill-rule:nonzero;stroke:none"
         id="path32" />
      <path
         d="m 2484.66,615.332 v -97.18 h 13.37 c 11.41,0 19.51,1.262 24.34,3.813 4.81,2.547 8.59,7 11.33,13.355 2.72,6.34 4.09,16.633 4.09,30.879 0,18.84 -3.06,31.75 -9.16,38.703 -6.11,6.953 -16.22,10.43 -30.35,10.43 z m -55,40.32 h 81.54 c 16.07,0 29.06,-2.195 38.95,-6.562 9.89,-4.356 18.07,-10.633 24.54,-18.797 6.46,-8.164 11.14,-17.668 14.06,-28.508 2.9,-10.828 4.35,-22.312 4.35,-34.441 0,-19.004 -2.16,-33.731 -6.48,-44.211 -4.33,-10.465 -10.33,-19.246 -17.99,-26.317 -7.68,-7.07 -15.92,-11.777 -24.72,-14.121 -12.03,-3.242 -22.94,-4.863 -32.71,-4.863 h -81.54 v 177.82"
         style="fill:#231f20;fill-opacity:1;fill-rule:nonzero;stroke:none"
         id="path34" />
      <path
         d="m 677.598,418.293 h 166.875 v -44.066 h -55.938 v -133.75 h -55 v 133.75 h -55.937 v 44.066"
         style="fill:#231f20;fill-opacity:1;fill-rule:nonzero;stroke:none"
         id="path36" />
      <path
         d="m 869.184,418.293 h 147.186 v -38.129 h -92.186 v -28.125 h 85.626 v -36.25 h -85.626 v -35 h 94.996 V 240.477 H 869.184 v 177.816"
         style="fill:#231f20;fill-opacity:1;fill-rule:nonzero;stroke:none"
         id="path38" />
      <path
         d="m 1167.03,313.289 48.12,-14.598 c -3.23,-13.527 -8.33,-24.824 -15.27,-33.894 -6.96,-9.067 -15.58,-15.91 -25.87,-20.52 -10.31,-4.621 -23.42,-6.925 -39.33,-6.925 -19.3,0 -35.09,2.812 -47.32,8.437 -12.24,5.617 -22.8,15.5 -31.69,29.66 -8.89,14.16 -13.33,32.274 -13.33,54.356 0,29.441 7.82,52.07 23.47,67.89 15.64,15.813 37.78,23.723 66.4,23.723 22.39,0 40,-4.543 52.81,-13.625 12.82,-9.082 22.34,-23.02 28.57,-41.828 l -48.44,-10.801 c -1.71,5.422 -3.48,9.387 -5.35,11.895 -3.08,4.199 -6.85,7.445 -11.3,9.707 -4.45,2.265 -9.44,3.398 -14.95,3.398 -12.47,0 -22.04,-5.008 -28.67,-15.027 -5.03,-7.434 -7.54,-19.102 -7.54,-35.02 0,-19.726 2.99,-33.234 8.96,-40.547 5.98,-7.312 14.38,-10.968 25.21,-10.968 10.51,0 18.45,2.961 23.82,8.886 5.37,5.918 9.26,14.524 11.7,25.801"
         style="fill:#231f20;fill-opacity:1;fill-rule:nonzero;stroke:none"
         id="path40" />
      <path
         d="m 1242.13,418.293 h 51.2 l 66.93,-98.352 v 98.352 h 51.87 V 240.477 h -51.87 l -66.57,97.812 v -97.812 h -51.56 v 177.816"
         style="fill:#231f20;fill-opacity:1;fill-rule:nonzero;stroke:none"
         id="path42" />
      <path
         d="m 1496.88,329.109 c 0,-17.976 3.33,-30.886 10,-38.738 6.67,-7.844 15.75,-11.769 27.25,-11.769 11.79,0 20.93,3.847 27.42,11.535 6.46,7.683 9.7,21.484 9.7,41.394 0,16.758 -3.37,28.996 -10.13,36.723 -6.76,7.73 -15.92,11.598 -27.48,11.598 -11.09,0 -19.98,-3.926 -26.7,-11.778 -6.71,-7.851 -10.06,-20.84 -10.06,-38.965 z m -55,0.149 c 0,29.062 8.09,51.687 24.27,67.871 16.18,16.191 38.72,24.289 67.6,24.289 29.62,0 52.44,-7.961 68.46,-23.859 16.03,-15.911 24.04,-38.184 24.04,-66.836 0,-20.813 -3.5,-37.864 -10.5,-51.184 -7,-13.309 -17.12,-23.672 -30.34,-31.082 -13.24,-7.402 -29.72,-11.105 -49.47,-11.105 -20.07,0 -36.68,3.195 -49.82,9.589 -13.16,6.399 -23.82,16.516 -31.98,30.356 -8.18,13.836 -12.26,31.16 -12.26,51.961"
         style="fill:#231f20;fill-opacity:1;fill-rule:nonzero;stroke:none"
         id="path44" />
      <path
         d="m 1655.69,418.293 h 55 V 284.227 h 85.62 v -43.75 h -140.62 v 177.816"
         style="fill:#231f20;fill-opacity:1;fill-rule:nonzero;stroke:none"
         id="path46" />
      <path
         d="m 1869.51,329.109 c 0,-17.976 3.33,-30.886 10.01,-38.738 6.67,-7.844 15.75,-11.769 27.23,-11.769 11.81,0 20.95,3.847 27.42,11.535 6.47,7.683 9.71,21.484 9.71,41.394 0,16.758 -3.38,28.996 -10.13,36.723 -6.75,7.73 -15.91,11.598 -27.49,11.598 -11.08,0 -19.97,-3.926 -26.68,-11.778 -6.72,-7.851 -10.07,-20.84 -10.07,-38.965 z m -55,0.149 c 0,29.062 8.08,51.687 24.26,67.871 16.2,16.191 38.73,24.289 67.62,24.289 29.62,0 52.43,-7.961 68.46,-23.859 16.01,-15.911 24.03,-38.184 24.03,-66.836 0,-20.813 -3.49,-37.864 -10.5,-51.184 -7,-13.309 -17.12,-23.672 -30.35,-31.082 -13.23,-7.402 -29.7,-11.105 -49.45,-11.105 -20.07,0 -36.69,3.195 -49.83,9.589 -13.16,6.399 -23.81,16.516 -31.99,30.356 -8.17,13.836 -12.25,31.16 -12.25,51.961"
         style="fill:#231f20;fill-opacity:1;fill-rule:nonzero;stroke:none"
         id="path48" />
      <path
         d="m 2117.69,305.164 v 36.875 h 85 v -75.965 c -16.27,-11.125 -30.65,-18.691 -43.15,-22.707 -12.51,-4.004 -27.35,-6.015 -44.5,-6.015 -21.13,0 -38.35,3.605 -51.66,10.812 -13.32,7.195 -23.63,17.922 -30.95,32.168 -7.33,14.246 -10.99,30.594 -10.99,49.051 0,19.426 4,36.32 12.01,50.695 8.01,14.363 19.74,25.262 35.2,32.715 12.05,5.742 28.27,8.625 48.66,8.625 19.66,0 34.36,-1.781 44.1,-5.332 9.75,-3.559 17.84,-9.074 24.28,-16.547 6.42,-7.461 11.27,-16.941 14.5,-28.406 l -53.12,-9.406 c -2.19,6.671 -5.89,11.781 -11.11,15.312 -5.21,3.535 -11.87,5.313 -19.96,5.313 -12.05,0 -21.66,-4.188 -28.83,-12.555 -7.16,-8.383 -10.73,-21.621 -10.73,-39.738 0,-19.27 3.62,-33.02 10.89,-41.27 7.25,-8.254 17.38,-12.375 30.37,-12.375 6.15,0 12.04,0.891 17.64,2.695 5.59,1.789 12,4.844 19.23,9.172 v 16.883 h -36.88"
         style="fill:#231f20;fill-opacity:1;fill-rule:nonzero;stroke:none"
         id="path50" />
      <path
         d="m 2237.45,418.293 h 55 V 240.477 h -55 v 177.816"
         style="fill:#231f20;fill-opacity:1;fill-rule:nonzero;stroke:none"
         id="path52" />
      <path
         d="m 2450.37,313.289 48.12,-14.598 c -3.23,-13.527 -8.33,-24.824 -15.27,-33.894 -6.96,-9.067 -15.58,-15.91 -25.88,-20.52 -10.3,-4.621 -23.41,-6.925 -39.32,-6.925 -19.3,0 -35.09,2.812 -47.32,8.437 -12.24,5.617 -22.8,15.5 -31.69,29.66 -8.89,14.16 -13.33,32.274 -13.33,54.356 0,29.441 7.82,52.07 23.47,67.89 15.64,15.813 37.77,23.723 66.4,23.723 22.39,0 40,-4.543 52.81,-13.625 12.82,-9.082 22.34,-23.02 28.57,-41.828 l -48.44,-10.801 c -1.71,5.422 -3.49,9.387 -5.35,11.895 -3.08,4.199 -6.85,7.445 -11.3,9.707 -4.46,2.265 -9.43,3.398 -14.95,3.398 -12.47,0 -22.04,-5.008 -28.67,-15.027 -5.03,-7.434 -7.54,-19.102 -7.54,-35.02 0,-19.726 2.99,-33.234 8.96,-40.547 5.98,-7.312 14.39,-10.968 25.21,-10.968 10.51,0 18.45,2.961 23.82,8.886 5.37,5.918 9.26,14.524 11.7,25.801"
         style="fill:#231f20;fill-opacity:1;fill-rule:nonzero;stroke:none"
         id="path54" />
      <path
         d="m 2622.76,308.289 -19.32,63.918 -19.4,-63.918 z m 11.61,-38.437 h -62 l -8.92,-29.375 h -56.11 l 66.72,177.816 h 60.26 l 66.47,-177.816 h -57.54 l -8.88,29.375"
         style="fill:#231f20;fill-opacity:1;fill-rule:nonzero;stroke:none"
         id="path56" />
      <path
         d="m 690.098,180.926 h 51.203 l 66.922,-98.3479 v 98.3479 h 51.875 V 3.125 H 808.223 L 741.66,100.938 V 3.125 h -51.562 v 177.801"
         style="fill:#231f20;fill-opacity:1;fill-rule:nonzero;stroke:none"
         id="path58" />
      <path
         d="M 994.316,70.9258 975,134.844 955.602,70.9258 Z M 1005.93,32.5 h -62 L 935.016,3.125 h -56.11 l 66.715,177.801 h 60.269 L 1072.34,3.125 h -57.54 l -8.87,29.375"
         style="fill:#231f20;fill-opacity:1;fill-rule:nonzero;stroke:none"
         id="path60" />
      <path
         d="m 1208.38,75.9258 48.13,-14.5977 c -3.22,-13.5273 -8.32,-24.8242 -15.26,-33.8867 -6.96,-9.0742 -15.58,-15.9101 -25.88,-20.52734 C 1205.06,2.30469 1191.96,0 1176.05,0 c -19.32,0 -35.09,2.80078 -47.33,8.42578 -12.24,5.61722 -22.8,15.50782 -31.68,29.66012 -8.9,14.1602 -13.34,32.2852 -13.34,54.3633 0,29.4458 7.82,52.0708 23.47,67.8828 15.64,15.82 37.78,23.719 66.4,23.719 22.39,0 40.01,-4.539 52.81,-13.613 12.82,-9.083 22.34,-23.028 28.57,-41.825 l -48.44,-10.812 c -1.7,5.422 -3.48,9.394 -5.34,11.906 -3.08,4.199 -6.86,7.441 -11.3,9.707 -4.46,2.258 -9.45,3.387 -14.95,3.387 -12.48,0 -22.04,-5.008 -28.68,-15.02 -5.02,-7.441 -7.54,-19.109 -7.54,-35.0271 0,-19.7187 2.98,-33.2226 8.97,-40.5469 5.97,-7.3047 14.38,-10.957 25.21,-10.957 10.5,0 18.43,2.9609 23.8,8.8789 5.38,5.918 9.28,14.5274 11.7,25.7969"
         style="fill:#231f20;fill-opacity:1;fill-rule:nonzero;stroke:none"
         id="path62" />
      <path
         d="m 1285.37,180.926 h 55 V 3.125 h -55 v 177.801"
         style="fill:#231f20;fill-opacity:1;fill-rule:nonzero;stroke:none"
         id="path64" />
      <path
         d="m 1427.97,91.7461 c 0,-17.9688 3.34,-30.8789 10.02,-38.7305 6.66,-7.8515 15.76,-11.7656 27.23,-11.7656 11.82,0 20.96,3.8398 27.42,11.5313 6.48,7.6796 9.71,21.4765 9.71,41.3906 0,16.7541 -3.38,28.9921 -10.13,36.7261 -6.76,7.723 -15.92,11.602 -27.48,11.602 -11.08,0 -19.98,-3.926 -26.69,-11.785 -6.72,-7.844 -10.08,-20.844 -10.08,-38.9689 z m -55,0.1562 c 0,29.0547 8.1,51.6837 24.28,67.8707 16.18,16.184 38.72,24.278 67.62,24.278 29.61,0 52.43,-7.949 68.46,-23.848 16.01,-15.918 24.02,-38.191 24.02,-66.8358 0,-20.8086 -3.5,-37.8711 -10.5,-51.1914 -7,-13.3086 -17.12,-23.668 -30.34,-31.0742 C 1503.28,3.69922 1486.79,0 1467.05,0 c -20.07,0 -36.68,3.19141 -49.84,9.57813 -13.14,6.40627 -23.81,16.51567 -31.97,30.36327 -8.18,13.8359 -12.27,31.1602 -12.27,51.9609"
         style="fill:#231f20;fill-opacity:1;fill-rule:nonzero;stroke:none"
         id="path66" />
      <path
         d="m 1587.09,180.926 h 51.21 l 66.92,-98.3479 v 98.3479 h 51.87 V 3.125 h -51.87 l -66.56,97.813 V 3.125 h -51.57 v 177.801"
         style="fill:#231f20;fill-opacity:1;fill-rule:nonzero;stroke:none"
         id="path68" />
      <path
         d="M 1891.32,70.9258 1872.01,134.844 1852.6,70.9258 Z M 1902.93,32.5 h -62 l -8.91,-29.375 h -56.11 l 66.72,177.801 h 60.27 L 1969.35,3.125 h -57.54 l -8.88,29.375"
         style="fill:#231f20;fill-opacity:1;fill-rule:nonzero;stroke:none"
         id="path70" />
      <path
         d="m 1986.96,180.926 h 55 V 46.875 h 85.62 V 3.125 h -140.62 v 177.801"
         style="fill:#231f20;fill-opacity:1;fill-rule:nonzero;stroke:none"
         id="path72" />
    </g>
  </g>
</svg>
